<svg xmlns="http://www.w3.org/2000/svg" viewBox="0 0 64 64" width="64" height="64" role="img" aria-label="Territory map logo">
  <defs>
    <linearGradient id="g" x1="0" y1="0" x2="1" y2="1">
      <stop offset="0" stop-color="#ec008c"/>
      <stop offset="1" stop-color="#7a2a9e"/>
    </linearGradient>
  </defs>
  <rect x="2" y="2" width="60" height="60" rx="14" fill="#160d24" stroke="#2c1a43" stroke-width="2"/>
  <path d="M14 20 L26 15 L38 20 L50 15 L50 46 L38 51 L26 46 L14 51 Z" fill="none" stroke="#4b2f73" stroke-width="2.5" stroke-linejoin="round"/>
  <path d="M26 15 L26 46 M38 20 L38 51" stroke="#4b2f73" stroke-width="2" fill="none"/>
  <path d="M32 13c-6.6 0-12 5.2-12 11.7C20 33.4 32 45 32 45s12-11.6 12-20.3C44 18.2 38.6 13 32 13z" fill="url(#g)"/>
  <circle cx="32" cy="24.5" r="4.5" fill="#160d24"/>
</svg>
